<svg width="24" height="24" viewBox="0 0 24 24" fill="none" xmlns="http://www.w3.org/2000/svg">
<rect width="24" height="24" rx="4" fill="#FBFAFD"/>
<path d="M7.5 9H8.5H16.5" stroke="#8181A5" stroke-linecap="round" stroke-linejoin="round"/>
<path d="M10 9V8C10 7.73478 10.1054 7.48043 10.2929 7.29289C10.4804 7.10536 10.7348 7 11 7H13C13.2652 7 13.5196 7.10536 13.7071 7.29289C13.8946 7.48043 14 7.73478 14 8V9M15.5 9V16C15.5 16.2652 15.3946 16.5196 15.2071 16.7071C15.0196 16.8946 14.7652 17 14.5 17H9.5C9.23478 17 8.98043 16.8946 8.79289 16.7071C8.60536 16.5196 8.5 16.2652 8.5 16V9H15.5Z" stroke="#8181A5" stroke-linecap="round" stroke-linejoin="round"/>
<path d="M11 11.5V14.5" stroke="#8181A5" stroke-linecap="round" stroke-linejoin="round"/>
<path d="M13 11.5V14.5" stroke="#8181A5" stroke-linecap="round" stroke-linejoin="round"/>
</svg>
